<svg height="512" viewBox="0 0 58 44" width="512" xmlns="http://www.w3.org/2000/svg"><g id="Page-1" fill="none" fill-rule="evenodd"><g id="039---Cursor-Keyboard" fill-rule="nonzero"><rect id="Rectangle-path" fill="#894b9d" height="22" rx="5" width="19" y="22"/><rect id="Rectangle-path" fill="#f29c1f" height="22" rx="5" width="20" x="19" y="22"/><rect id="Rectangle-path" fill="#894b9d" height="22" rx="5" width="20" x="19"/><path id="Shape" d="m23 7c-.5522847 0-1-.44771525-1-1 0-1.65685425 1.3431458-3 3-3h1c.5522847 0 1 .44771525 1 1s-.4477153 1-1 1h-1c-.5522847 0-1 .44771525-1 1 0 .26521649-.1053568.5195704-.2928932.70710678s-.4418903.29289322-.7071068.29289322z" fill="#b49aca"/><rect id="Rectangle-path" fill="#894b9d" height="22" rx="5" width="19" x="39" y="22"/><path id="Shape" d="m32 5h-2c-.5522847 0-1-.44771525-1-1s.4477153-1 1-1h2c.5522847 0 1 .44771525 1 1s-.4477153 1-1 1z" fill="#b49aca"/><path id="Shape" d="m23 29c-.5522847 0-1-.4477153-1-1 0-1.6568542 1.3431458-3 3-3h1c.5522847 0 1 .4477153 1 1s-.4477153 1-1 1h-1c-.5522847 0-1 .4477153-1 1s-.4477153 1-1 1z" fill="#f9eab0"/><path id="Shape" d="m32 27h-2c-.5522847 0-1-.4477153-1-1s.4477153-1 1-1h2c.5522847 0 1 .4477153 1 1s-.4477153 1-1 1z" fill="#f9eab0"/><g fill="#b49aca"><path id="Shape" d="m4 29c-.55228475 0-1-.4477153-1-1 0-1.6568542 1.34314575-3 3-3h1c.55228475 0 1 .4477153 1 1s-.44771525 1-1 1h-1c-.55228475 0-1 .4477153-1 1s-.44771525 1-1 1z"/><path id="Shape" d="m13 27h-2c-.5522847 0-1-.4477153-1-1s.4477153-1 1-1h2c.5522847 0 1 .4477153 1 1s-.4477153 1-1 1z"/><path id="Shape" d="m43 29c-.5522847 0-1-.4477153-1-1 0-1.6568542 1.3431458-3 3-3h1c.5522847 0 1 .4477153 1 1s-.4477153 1-1 1h-1c-.5522847 0-1 .4477153-1 1s-.4477153 1-1 1z"/><path id="Shape" d="m52 27h-2c-.5522847 0-1-.4477153-1-1s.4477153-1 1-1h2c.5522847 0 1 .4477153 1 1s-.4477153 1-1 1z"/></g><path id="Shape" d="m33 13c-.3041289.000418-.5919196-.137589-.782-.375l-2.438-3.048c-.1954793-.22718327-.4802928-.35785099-.78-.35785099s-.5845207.13066772-.78.35785099l-2.439 3.048c-.223291.2790245-.5784781.4177293-.9317659.3638659-.3532877-.0538635-.6510033-.2921121-.781-.625-.1299968-.3328879-.0725251-.7098415.1507659-.9888659l2.438-3.047c.5693051-.71193782 1.4314279-1.12640693 2.343-1.12640693s1.7736949.41446911 2.343 1.12640693l2.438 3.047c.2403397.3001841.2872591.7115903.1206819 1.0581819-.1665772.3465915-.5171385.5669624-.9016819.5668181z" fill="#3d324c"/><path id="Shape" d="m29 37c-.9114843.0022399-1.7740409-.4120966-2.342-1.125l-2.439-3.049c-.3407114-.4315746-.2690699-1.0572621.1603755-1.4006534.4294453-.3433912 1.0555666-.275646 1.4016245.1516534l2.439 3.048c.1956664.2272242.4806397.357899.7805.357899s.5848336-.1306748.7805-.357899l2.438-3.048c.3460579-.4272994.9721792-.4950446 1.4016245-.1516534.4294454.3433913.5010869.9690788.1603755 1.4006534l-2.438 3.048c-.5680719.713435-1.4310293 1.1281555-2.343 1.126z" fill="#d25627"/><path id="Shape" d="m10 39c-.21653541.0010257-.42738707-.0692582-.6-.2l-3.21-2.438c-.74616698-.5540698-1.18605597-1.4286139-1.18605597-2.358s.43988899-1.8039302 1.18605597-2.358l3.21-2.446c.28581247-.2143594.6642735-.2599565.9928204-.1196153s.5572656.4452995.6.8c.0427344.3547006-.1070079.705256-.3928204.9196153l-3.2 2.435c-.24791032.1758991-.39521183.4610263-.39521183.765s.14730151.5891009.39521183.765l3.2 2.435c.3443443.2582582.4847973.7078856.3486833 1.1162278-.136114.4083421-.5182529.6837722-.9486833.6837722z" fill="#3d324c"/><path id="Shape" d="m48 39c-.4304304 0-.8125693-.2754301-.9486833-.6837722-.136114-.4083422.004339-.8579696.3486833-1.1162278l3.209-2.439c.2479103-.1758991.3952118-.4610263.3952118-.765s-.1473015-.5891009-.3952118-.765l-3.209-2.431c-.2858125-.2143593-.4355548-.5649147-.3928204-.9196153.0427344-.3547005.2714532-.6596588.6000001-.8.3285468-.1403412.7070078-.0947441.9928203.1196153l3.21 2.438c.746167.5540698 1.186056 1.4286139 1.186056 2.358s-.439889 1.8039302-1.186056 2.358l-3.21 2.446c-.1726129.1307418-.3834646.2010257-.6.2z" fill="#3d324c"/></g></g></svg>